HIERARCHY
ROOT Hips
{
	OFFSET -0.031289 103.266464 0.443827
	CHANNELS 6 Xposition Yposition Zposition Xrotation Yrotation Zrotation 
	JOINT Spine
	{
		OFFSET -0.002448 12.777534 0.315252
		CHANNELS 3 Xrotation Yrotation Zrotation
		JOINT Spine1
		{
			OFFSET -0.002040 5.816851 0.032640
			CHANNELS 3 Xrotation Yrotation Zrotation
			JOINT Spine1_split
			{
				OFFSET -0.002040 5.816851 0.032640
				CHANNELS 3 Xrotation Yrotation Zrotation
				JOINT Spine2
				{
					OFFSET -0.002040 5.816851 0.032640
					CHANNELS 3 Xrotation Yrotation Zrotation
					JOINT Neck
					{
						OFFSET -0.003672 21.199554 -0.826883
						CHANNELS 3 Xrotation Yrotation Zrotation
						JOINT Head
						{
							OFFSET -0.000000 20.442154 4.834770
							CHANNELS 3 Xrotation Yrotation Zrotation
							JOINT HeadTop_End
							{
								OFFSET 0.000000 34.668427 4.968426
								CHANNELS 3 Xrotation Yrotation Zrotation
								End Site
								{
									OFFSET 0.000000 0.000000 0.000000
								}
							}
						}
					}
					JOINT LeftShoulder
					{
						OFFSET 3.288174 8.794213 -1.372251
						CHANNELS 3 Xrotation Yrotation Zrotation
						JOINT LeftShoulder_split
						{
							OFFSET 3.288174 8.794213 -1.372251
							CHANNELS 3 Xrotation Yrotation Zrotation
							JOINT LeftArm
							{
								OFFSET 11.953302 -2.279037 -0.146175
								CHANNELS 3 Xrotation Yrotation Zrotation
								JOINT LeftForeArm
								{
									OFFSET 18.448874 0.000061 -0.000024
									CHANNELS 3 Xrotation Yrotation Zrotation
									JOINT LeftHand
									{
										OFFSET 29.527794 0.000092 -0.000021
										CHANNELS 3 Xrotation Yrotation Zrotation
										JOINT LeftHandThumb1
										{
											OFFSET 10.739838 -2.369766 9.225297
											CHANNELS 3 Xrotation Yrotation Zrotation
											JOINT LeftHandThumb2
											{
												OFFSET 4.926178 -2.844101 2.844107
												CHANNELS 3 Xrotation Yrotation Zrotation
												JOINT LeftHandThumb3
												{
													OFFSET 4.614899 -2.664444 2.664389
													CHANNELS 3 Xrotation Yrotation Zrotation
													JOINT LeftHandThumb4
													{
														OFFSET 4.432472 -2.559052 2.559026
														CHANNELS 3 Xrotation Yrotation Zrotation
														End Site
														{
															OFFSET 0.000000 0.000000 0.000000
														}
													}
												}
											}
										}
										JOINT LeftHandIndex1
										{
											OFFSET 26.467659 0.187592 6.405249
											CHANNELS 3 Xrotation Yrotation Zrotation
											JOINT LeftHandIndex2
											{
												OFFSET 8.792877 0.000046 -0.000014
												CHANNELS 3 Xrotation Yrotation Zrotation
												JOINT LeftHandIndex3
												{
													OFFSET 10.075157 0.000031 -0.000014
													CHANNELS 3 Xrotation Yrotation Zrotation
													End Site
													{
														OFFSET 0.000000 0.000000 0.000000
													}
												}
											}
										}
										JOINT LeftHandMiddle1
										{
											OFFSET 25.764420 0.000076 -0.000063
											CHANNELS 3 Xrotation Yrotation Zrotation
											JOINT LeftHandMiddle2
											{
												OFFSET 9.368942 -0.468658 -0.500905
												CHANNELS 3 Xrotation Yrotation Zrotation
												JOINT LeftHandMiddle3
												{
													OFFSET 10.758461 -0.538101 0.000023
													CHANNELS 3 Xrotation Yrotation Zrotation
													End Site
													{
														OFFSET 0.000000 0.000000 0.000000
													}
												}
											}
										}
										JOINT LeftHandRing1
										{
											OFFSET 24.660912 0.144745 -6.225863
											CHANNELS 3 Xrotation Yrotation Zrotation
											JOINT LeftHandRing2
											{
												OFFSET 9.393806 0.000046 -0.000017
												CHANNELS 3 Xrotation Yrotation Zrotation
												JOINT LeftHandRing3
												{
													OFFSET 9.928528 -0.000015 -0.000007
													CHANNELS 3 Xrotation Yrotation Zrotation
													End Site
													{
														OFFSET 0.000000 0.000000 0.000000
													}
												}
											}
										}
										JOINT LeftHandPinky1
										{
											OFFSET 23.655312 0.125748 -12.815530
											CHANNELS 3 Xrotation Yrotation Zrotation
											JOINT LeftHandPinky2
											{
												OFFSET 8.425102 0.000031 -0.000015
												CHANNELS 3 Xrotation Yrotation Zrotation
												JOINT LeftHandPinky3
												{
													OFFSET 8.146988 0.000015 -0.000021
													CHANNELS 3 Xrotation Yrotation Zrotation
													End Site
													{
														OFFSET 0.000000 0.000000 0.000000
													}
												}
											}
										}
									}
								}
							}
						}
					}
					JOINT RightShoulder
					{
						OFFSET -3.249397 8.794213 -1.372251
						CHANNELS 3 Xrotation Yrotation Zrotation
						JOINT RightShoulder_split
						{
							OFFSET -3.249397 8.794213 -1.372251
							CHANNELS 3 Xrotation Yrotation Zrotation
							JOINT RightArm
							{
								OFFSET -11.953302 -2.279037 -0.146175
								CHANNELS 3 Xrotation Yrotation Zrotation
								JOINT RightForeArm
								{
									OFFSET -18.448874 0.000061 -0.000024
									CHANNELS 3 Xrotation Yrotation Zrotation
									JOINT RightHand
									{
										OFFSET -29.527794 0.000092 -0.000021
										CHANNELS 3 Xrotation Yrotation Zrotation
										JOINT RightHandThumb1
										{
											OFFSET -10.739838 -2.369766 9.225297
											CHANNELS 3 Xrotation Yrotation Zrotation
											JOINT RightHandThumb2
											{
												OFFSET -4.926178 -2.844101 2.844107
												CHANNELS 3 Xrotation Yrotation Zrotation
												JOINT RightHandThumb3
												{
													OFFSET -4.614899 -2.664444 2.664389
													CHANNELS 3 Xrotation Yrotation Zrotation
													JOINT RightHandThumb4
													{
														OFFSET -4.432472 -2.559052 2.559026
														CHANNELS 3 Xrotation Yrotation Zrotation
														End Site
														{
															OFFSET 0.000000 0.000000 0.000000
														}
													}
												}
											}
										}
										JOINT RightHandIndex1
										{
											OFFSET -26.467659 0.187592 6.405249
											CHANNELS 3 Xrotation Yrotation Zrotation
											JOINT RightHandIndex2
											{
												OFFSET -8.792877 0.000046 -0.000014
												CHANNELS 3 Xrotation Yrotation Zrotation
												JOINT RightHandIndex3
												{
													OFFSET -10.075157 0.000031 -0.000014
													CHANNELS 3 Xrotation Yrotation Zrotation
													End Site
													{
														OFFSET 0.000000 0.000000 0.000000
													}
												}
											}
										}
										JOINT RightHandMiddle1
										{
											OFFSET -25.764420 0.000076 -0.000063
											CHANNELS 3 Xrotation Yrotation Zrotation
											JOINT RightHandMiddle2
											{
												OFFSET -9.368942 -0.468658 -0.500905
												CHANNELS 3 Xrotation Yrotation Zrotation
												JOINT RightHandMiddle3
												{
													OFFSET -10.758461 -0.538101 0.000023
													CHANNELS 3 Xrotation Yrotation Zrotation
													End Site
													{
														OFFSET 0.000000 0.000000 0.000000
													}
												}
											}
										}
										JOINT RightHandRing1
										{
											OFFSET -24.660912 0.144745 -6.225863
											CHANNELS 3 Xrotation Yrotation Zrotation
											JOINT RightHandRing2
											{
												OFFSET -9.393806 0.000046 -0.000017
												CHANNELS 3 Xrotation Yrotation Zrotation
												JOINT RightHandRing3
												{
													OFFSET -9.928528 -0.000015 -0.000007
													CHANNELS 3 Xrotation Yrotation Zrotation
													End Site
													{
														OFFSET 0.000000 0.000000 0.000000
													}
												}
											}
										}
										JOINT RightHandPinky1
										{
											OFFSET -23.655312 0.125748 -12.815530
											CHANNELS 3 Xrotation Yrotation Zrotation
											JOINT RightHandPinky2
											{
												OFFSET -8.425102 0.000031 -0.000015
												CHANNELS 3 Xrotation Yrotation Zrotation
												JOINT RightHandPinky3
												{
													OFFSET -8.146980 0.000015 -0.000021
													CHANNELS 3 Xrotation Yrotation Zrotation
													End Site
													{
														OFFSET 0.000000 0.000000 0.000000
													}
												}
											}
										}
									}
								}
							}
						}
					}
				}
			}
		}
	}
	JOINT LeftUpLeg
	{
		OFFSET 11.394079 -6.187805 -0.413817
		CHANNELS 3 Xrotation Yrotation Zrotation
		JOINT LeftLeg
		{
			OFFSET 0.435522 -32.302582 3.732836
			CHANNELS 3 Xrotation Yrotation Zrotation
			JOINT LeftFoot
			{
				OFFSET -0.422448 -48.265030 -6.423308
				CHANNELS 3 Xrotation Yrotation Zrotation
				JOINT LeftToeBase
				{
					OFFSET 4.230914 -16.068172 23.438400
					CHANNELS 3 Xrotation Yrotation Zrotation
					JOINT LeftToe_End
					{
						OFFSET 4.510741 0.695408 19.974636
						CHANNELS 3 Xrotation Yrotation Zrotation
						End Site
						{
							OFFSET 0.000000 0.000000 0.000000
						}
					}
				}
			}
		}
	}
	JOINT RightUpLeg
	{
		OFFSET -11.333660 -6.187805 -0.413817
		CHANNELS 3 Xrotation Yrotation Zrotation
		JOINT RightLeg
		{
			OFFSET -0.425090 -32.302704 3.733010
			CHANNELS 3 Xrotation Yrotation Zrotation
			JOINT RightFoot
			{
				OFFSET 0.438313 -48.264862 -6.423481
				CHANNELS 3 Xrotation Yrotation Zrotation
				JOINT RightToeBase
				{
					OFFSET -4.230914 -16.068172 23.438402
					CHANNELS 3 Xrotation Yrotation Zrotation
					JOINT RightToe_End
					{
						OFFSET -4.510741 0.695407 19.974638
						CHANNELS 3 Xrotation Yrotation Zrotation
						End Site
						{
							OFFSET 0.000000 0.000000 0.000000
						}
					}
				}
			}
		}
	}
}
MOTION
Frames: 6
Frame Time: 0.016667
-0.399713 108.170113 5.430409 89.451135 1.011719 4.231086 -1.164626 0.653581 -0.579795 -2.316034 1.317258 -1.535884 0.000000 0.000000 0.000000 -2.316052 1.317257 -1.535886 -9.789819 1.583974 -0.348993 2.502142 5.858926 -13.077552 0.000000 0.000000 -0.000001 0.301160 -2.573215 -7.759638 0.000000 0.000000 0.000000 5.323415 18.969198 -23.535749 -11.597452 -135.484110 -0.906638 45.666071 7.446688 46.611919 -38.148075 -1.126972 -33.995207 1.840455 3.498949 6.597757 -0.000447 -0.000718 0.000062 -0.000002 0.000001 -0.000002 2.113424 4.796610 -56.326238 -7.601370 3.596307 -42.860673 -0.000000 -0.000001 -0.000000 -2.695551 4.234100 -55.480008 -4.512515 4.637961 -39.970824 -0.000001 0.000000 0.000002 -0.196161 11.274190 -52.037121 -0.340393 -0.392098 -62.474258 -0.000001 -0.000001 -0.000002 2.007667 5.699555 -66.672140 1.311905 -6.615198 -37.604037 0.000000 -0.000000 -0.000002 0.363588 1.823640 6.234520 0.000000 0.000000 0.000000 -10.487542 -31.902471 17.940542 -0.031085 139.696138 -0.046570 45.750673 -8.552703 -34.714747 -15.353092 3.914356 -18.094274 4.826357 -12.354985 -1.042764 -0.000442 0.000729 -0.000056 0.000000 -0.000001 0.000000 -9.789193 -1.378437 26.464809 -7.603896 -0.540815 49.976153 0.000001 -0.000001 0.000001 -4.055567 -0.021237 12.059331 -5.318520 -5.513200 59.830155 -0.000000 0.000000 -0.000000 -3.007590 -8.601745 10.695478 -2.274427 8.104428 77.637340 -0.000001 -0.000000 -0.000001 3.434144 -5.535411 22.479531 -0.814225 10.643785 54.511159 0.000001 0.000000 0.000000 -14.591823 1.688513 9.188946 18.849118 0.054124 -0.674208 20.503702 -0.678539 -16.119487 -5.689276 -0.035730 0.075054 0.000002 -0.000000 -0.000000 -27.896931 -54.176261 -30.672552 14.033302 -0.200820 0.374953 13.883370 40.672660 21.097421 2.665997 -0.203817 0.459011 -0.000001 0.000001 -0.000000 
-0.398679 108.183960 5.424467 89.442372 1.004284 4.240605 -1.161723 0.661638 -0.575513 -2.310159 1.333089 -1.525448 0.000000 0.000000 0.000000 -2.310151 1.333086 -1.525446 -9.900969 1.586346 -0.318188 2.520830 5.884363 -13.149394 -0.000001 0.000000 -0.000000 0.299685 -2.565763 -7.773035 0.000000 0.000000 0.000000 5.288735 18.895040 -23.552548 -11.583442 -135.407517 -0.903297 45.665316 7.416943 46.616820 -38.180430 -1.161786 -34.032282 1.852572 3.528318 6.590182 -0.000446 -0.000716 0.000063 0.000002 0.000003 0.000003 2.120668 4.811701 -56.248134 -7.595244 3.589993 -42.732153 -0.000000 0.000000 -0.000001 -2.675415 4.243664 -55.462499 -4.508010 4.638226 -39.879675 0.000000 -0.000000 -0.000002 -0.294987 11.290102 -51.904687 -0.342822 -0.388075 -62.419897 -0.000000 0.000000 -0.000003 1.946630 5.682861 -66.709754 1.310127 -6.610422 -37.557308 0.000001 0.000001 0.000001 0.364482 1.899045 6.253076 0.000000 0.000000 0.000000 -10.642563 -32.030316 18.091192 -0.031285 139.803413 -0.046210 45.872015 -8.498240 -34.556147 -15.467641 4.127992 -17.977847 4.808317 -12.315967 -1.050624 -0.000442 0.000729 -0.000056 -0.000000 -0.000000 -0.000000 -9.985036 -1.081227 27.861537 -7.536952 -0.549997 50.963439 -0.000001 0.000000 -0.000000 -4.386528 0.197716 14.833238 -5.447181 -5.450581 62.078176 -0.000001 -0.000000 -0.000000 -3.079760 -8.593388 12.620374 -2.277382 8.106553 77.670780 -0.000001 0.000000 0.000001 3.528988 -5.708591 22.906487 -0.739987 10.574521 53.841835 -0.000001 0.000000 0.000000 -14.556474 1.725234 9.202117 18.763839 0.037250 -0.672106 20.545919 -0.737212 -16.359802 -5.684486 -0.035731 0.075042 0.000001 -0.000001 -0.000000 -27.772289 -54.020581 -30.535132 14.023255 -0.196824 0.374788 13.747226 40.550341 21.254483 2.652815 -0.203748 0.458991 -0.000000 0.000001 -0.000000 
-0.399656 108.201645 5.419818 89.428179 1.005810 4.252954 -1.157560 0.667560 -0.571960 -2.301891 1.344655 -1.517198 0.000000 0.000000 0.000000 -2.301868 1.344653 -1.517199 -10.017184 1.590680 -0.290127 2.538482 5.913938 -13.218377 0.000000 -0.000001 0.000001 0.300355 -2.517161 -7.770312 0.000000 0.000000 0.000000 5.244147 18.738346 -23.659548 -11.611170 -135.300638 -0.912207 45.709088 7.302784 46.583758 -38.202979 -1.183707 -34.060193 1.863377 3.554467 6.583445 -0.000446 -0.000714 0.000059 0.000002 -0.000001 0.000000 2.126196 4.824530 -56.179870 -7.589680 3.584157 -42.613660 -0.000000 -0.000001 -0.000001 -2.649453 4.255106 -55.436342 -4.503495 4.638484 -39.788205 0.000001 0.000000 0.000001 -0.405743 11.306181 -51.767250 -0.345262 -0.384062 -62.365569 0.000000 0.000001 -0.000001 1.894967 5.666189 -66.767182 1.308476 -6.605878 -37.513223 0.000003 0.000001 -0.000003 0.364655 1.983891 6.282262 0.000000 0.000000 0.000000 -10.828620 -32.169447 18.275093 -0.031503 139.908967 -0.045736 46.016699 -8.412856 -34.377520 -15.589837 4.352512 -17.852629 4.787230 -12.270423 -1.059892 -0.000442 0.000728 -0.000056 0.000000 -0.000000 0.000000 -10.202721 -0.755958 29.359510 -7.461396 -0.556916 51.986749 -0.000002 -0.000000 0.000001 -4.745536 0.423736 17.769154 -5.587209 -5.389091 64.478721 -0.000001 -0.000000 -0.000000 -3.162440 -8.580003 14.647761 -2.280088 8.108457 77.701202 -0.000001 0.000000 -0.000001 3.626024 -5.880835 23.319422 -0.661971 10.501366 53.143328 -0.000000 -0.000000 0.000000 -14.525058 1.745834 9.208631 18.688163 0.021660 -0.670209 20.581312 -0.796536 -16.570742 -5.691398 -0.035749 0.075052 0.000001 -0.000001 0.000000 -27.634307 -53.852203 -30.389735 14.011448 -0.193093 0.374464 13.603545 40.407037 21.417875 2.641712 -0.203658 0.458982 0.000000 0.000003 -0.000000 
-0.405744 108.229561 5.418643 89.398358 1.028187 4.271863 -1.148885 0.669363 -0.570035 -2.284590 1.347991 -1.513991 0.000000 0.000000 0.000000 -2.284570 1.347989 -1.513991 -10.150574 1.599590 -0.263857 2.547895 5.959470 -13.282927 0.000000 0.000000 0.000000 0.300463 -2.491776 -7.774196 0.000000 0.000000 0.000000 5.191748 18.599305 -23.725975 -11.613405 -135.177339 -0.910967 45.742627 7.220730 46.601288 -38.204267 -1.184583 -34.061320 1.873352 3.578644 6.577200 -0.000446 -0.000716 0.000065 0.000002 0.000000 0.000002 2.127790 4.830513 -56.149957 -7.585380 3.579535 -42.517904 0.000001 0.000000 0.000001 -2.604581 4.271937 -55.399637 -4.498643 4.638746 -39.689997 -0.000001 -0.000000 0.000001 -0.543550 11.322436 -51.624059 -0.347872 -0.379765 -62.307246 0.000000 0.000000 -0.000002 1.865189 5.648464 -66.880338 1.307305 -6.602652 -37.481906 0.000002 0.000000 -0.000001 0.363552 2.096200 6.336791 0.000000 0.000000 0.000000 -11.090062 -32.352543 18.534970 -0.031817 140.020558 -0.045064 46.221154 -8.258992 -34.167150 -15.739227 4.621097 -17.698584 4.754017 -12.198881 -1.074735 -0.000442 0.000727 -0.000056 0.000000 -0.000000 0.000000 -10.476287 -0.377694 31.004930 -7.364226 -0.553126 52.912936 -0.000000 -0.000000 0.000001 -5.163156 0.675938 20.866593 -5.737358 -5.330239 67.004661 0.000001 0.000000 -0.000000 -3.281067 -8.548575 16.753327 -2.280309 8.108634 77.703797 0.000001 0.000000 0.000001 3.714792 -6.027191 23.711418 -0.580092 10.420598 52.387117 -0.000002 -0.000000 -0.000000 -14.503763 1.730710 9.199160 18.639076 0.009034 -0.668969 20.604282 -0.845896 -16.703050 -5.714133 -0.035794 0.075096 0.000003 0.000001 -0.000001 -27.460779 -53.654759 -30.223590 13.994716 -0.189579 0.373866 13.441117 40.218579 21.596708 2.633880 -0.203596 0.458980 -0.000001 0.000000 -0.000003 
-0.415791 108.263428 5.419877 89.361366 1.071505 4.297954 -1.140926 0.664447 -0.570337 -2.268588 1.337919 -1.516007 0.000000 0.000000 0.000000 -2.268589 1.337921 -1.516007 -10.285112 1.613410 -0.253261 2.566083 6.002259 -13.336241 0.000001 0.000001 0.000000 0.300162 -2.469908 -7.780759 0.000000 0.000000 0.000000 5.135331 18.465007 -23.791977 -11.610546 -135.038167 -0.904005 45.781662 7.129045 46.629958 -38.179292 -1.137663 -34.051826 1.875746 3.584355 6.575711 -0.000447 -0.000716 0.000061 -0.000000 -0.000003 0.000000 2.125060 4.834423 -56.112162 -7.582459 3.576173 -42.446740 -0.000001 0.000000 0.000001 -2.556738 4.290789 -55.323163 -4.494336 4.639026 -39.602898 0.000000 0.000001 -0.000000 -0.710719 11.339727 -51.457102 -0.350116 -0.376077 -62.257263 0.000000 0.000000 0.000002 1.857505 5.632820 -67.020500 1.305869 -6.598765 -37.443818 0.000000 0.000000 -0.000001 0.360037 2.219716 6.414964 0.000000 0.000000 0.000000 -11.418264 -32.526706 18.875730 -0.032053 140.108080 -0.044290 46.469267 -8.025373 -33.880248 -15.886125 4.877996 -17.540880 4.723663 -12.133321 -1.088266 -0.000443 0.000728 -0.000056 0.000001 -0.000000 -0.000000 -10.762333 0.013834 32.719926 -7.263409 -0.549429 53.889260 0.000001 -0.000000 0.000001 -5.593757 0.919349 24.057936 -5.896578 -5.275797 69.640670 0.000000 -0.000000 -0.000000 -3.419572 -8.507155 18.914590 -2.283597 8.110967 77.740633 -0.000001 -0.000001 -0.000002 3.793828 -6.153858 24.028923 -0.498279 10.347192 51.696653 0.000001 -0.000000 -0.000000 -14.489876 1.673955 9.175167 18.606135 -0.001968 -0.668116 20.600995 -0.915548 -16.787712 -5.786563 -0.035929 0.075250 -0.000002 -0.000001 -0.000000 -27.261168 -53.427956 -30.041252 13.972991 -0.186550 0.372990 13.262771 39.973730 21.790545 2.633676 -0.203596 0.459007 0.000001 0.000002 -0.000001 
-0.429304 108.302429 5.423359 89.321089 1.141597 4.333317 -1.136822 0.648802 -0.573780 -2.260655 1.306453 -1.524443 0.000000 0.000000 0.000000 -2.260646 1.306453 -1.524441 -10.402409 1.631400 -0.261016 2.596221 6.039804 -13.372027 0.000002 0.000000 -0.000000 0.299680 -2.451891 -7.792172 0.000000 0.000000 0.000000 5.078296 18.356880 -23.858546 -11.599898 -134.889023 -0.888109 45.827325 7.022299 46.664921 -38.135487 -1.025929 -34.066146 1.855435 3.535147 6.588425 -0.000446 -0.000717 0.000065 -0.000001 0.000001 0.000002 2.114704 4.839173 -56.017964 -7.581218 3.574306 -42.405134 -0.000000 -0.000000 0.000001 -2.527201 4.307896 -55.144188 -4.491638 4.639188 -39.548032 -0.000000 0.000000 -0.000001 -0.942107 11.360293 -51.226501 -0.351219 -0.374157 -62.231752 -0.000000 -0.000001 -0.000001 1.886974 5.623817 -67.175785 1.303453 -6.592404 -37.381557 0.000000 0.000000 -0.000003 0.353728 2.343974 6.521429 0.000000 0.000000 0.000000 -11.833270 -32.648721 19.329333 -0.032096 140.145114 -0.043646 46.765066 -7.667500 -33.456114 -16.014517 5.088061 -17.382971 4.724618 -12.134770 -1.087454 -0.000442 0.000729 -0.000056 -0.000000 -0.000000 0.000000 -11.047328 0.400137 34.483972 -7.167139 -0.550707 54.976312 0.000001 -0.000000 0.000002 -6.014836 1.131491 27.325333 -6.063474 -5.227052 72.362378 0.000000 -0.000000 -0.000001 -3.582599 -8.453271 21.118305 -2.293300 8.117846 77.849649 0.000002 0.000000 -0.000000 3.852008 -6.244144 24.241788 -0.418670 10.290887 51.150156 -0.000002 0.000000 0.000000 -14.484924 1.563236 9.133571 18.587132 -0.012220 -0.667672 20.555376 -1.030402 -16.837540 -5.947978 -0.036213 0.075582 0.000002 -0.000000 0.000000 -27.042169 -53.170905 -29.848224 13.945404 -0.184293 0.371750 13.068544 39.655057 22.000072 2.648725 -0.203678 0.459108 -0.000001 0.000003 -0.000002 
